<?xml version="1.0" encoding="utf-8"?>
<!-- Generator: Adobe Illustrator 21.0.0, SVG Export Plug-In . SVG Version: 6.00 Build 0)  -->
<svg version="1.1" id="Layer_1" xmlns="http://www.w3.org/2000/svg" xmlns:xlink="http://www.w3.org/1999/xlink" x="0px" y="0px"
	 viewBox="0 0 36 36" style="enable-background:new 0 0 36 36;" xml:space="preserve">
<style type="text/css">
	.st0{fill:#C69C6D;}
</style>
<g>
	<path class="st0" d="M6.1,16.9c0.7,0,1.2-0.2,1.6-0.5s0.7-0.8,0.8-1.4s0.2-1.6,0.2-3s0-2.3,0.1-2.8c0.1-0.7,0.2-1.3,0.4-1.7
		s0.5-0.8,0.8-1s0.7-0.5,1.2-0.6c0.3-0.1,0.8-0.1,1.6-0.1h0.7v2h-0.4c-0.9,0-1.5,0.2-1.8,0.5s-0.4,1-0.4,2.1c0,2.2,0,3.6-0.1,4.2
		c-0.2,0.9-0.4,1.6-0.8,2.1S9,17.6,8.3,17.9c0.9,0.4,1.6,1,2,1.8s0.6,2.1,0.6,3.9c0,1.7,0,2.6,0.1,2.9c0.1,0.6,0.2,1,0.5,1.2
		s0.8,0.3,1.6,0.3h0.4v2h-0.7c-0.8,0-1.4-0.1-1.8-0.2c-0.5-0.2-1-0.5-1.3-0.9S9,28,8.9,27.3c-0.1-0.7-0.2-1.8-0.2-3.3
		s-0.1-2.6-0.2-3.2s-0.4-1-0.8-1.4C7.3,19.2,6.8,19,6.1,19V16.9z"/>
	<path class="st0" d="M29.3,16.9V19c-0.7,0-1.2,0.2-1.6,0.5c-0.4,0.3-0.7,0.8-0.8,1.4c-0.1,0.6-0.2,1.6-0.2,3c0,1.4,0,2.3-0.1,2.8
		c-0.1,0.7-0.2,1.3-0.4,1.7c-0.2,0.4-0.5,0.8-0.8,1c-0.3,0.3-0.7,0.5-1.2,0.6c-0.3,0.1-0.8,0.1-1.6,0.1h-0.7v-2h0.4
		c0.9,0,1.5-0.2,1.8-0.5c0.3-0.3,0.4-1,0.4-2.1c0-2.1,0-3.5,0.1-4c0.1-0.9,0.4-1.7,0.8-2.3c0.4-0.6,1-1,1.7-1.3
		c-1-0.5-1.7-1.1-2.1-1.8s-0.6-2.1-0.6-3.9c0-1.7,0-2.6-0.1-3c-0.1-0.6-0.2-1-0.5-1.2c-0.3-0.2-0.8-0.3-1.6-0.3h-0.4v-2h0.7
		c0.8,0,1.4,0.1,1.8,0.2c0.5,0.2,1,0.5,1.3,0.9s0.6,1,0.7,1.7c0.1,0.7,0.2,1.8,0.2,3.3s0.1,2.6,0.2,3.2s0.4,1,0.8,1.4
		C28.1,16.7,28.6,16.9,29.3,16.9z"/>
</g>
</svg>
