<?xml version="1.0" encoding="utf-8"?>
<!-- Generator: Adobe Illustrator 21.0.0, SVG Export Plug-In . SVG Version: 6.00 Build 0)  -->
<svg version="1.1" id="Layer_1" xmlns="http://www.w3.org/2000/svg" xmlns:xlink="http://www.w3.org/1999/xlink" x="0px" y="0px"
	 viewBox="0 0 579.7 136.4" style="enable-background:new 0 0 579.7 136.4;" xml:space="preserve">
<style type="text/css">
	.st0{fill:url(#SVGID_1_);}
	.st1{fill:url(#SVGID_2_);}
	.st2{fill:url(#SVGID_3_);}
	.st3{fill:url(#SVGID_4_);}
	.st4{fill:#FFFFFF;}
</style>
<g>
	<linearGradient id="SVGID_1_" gradientUnits="userSpaceOnUse" x1="264.5489" y1="-38.6233" x2="484.177" y2="181.0049">
		<stop  offset="0.2268" style="stop-color:#94509F"/>
		<stop  offset="0.4889" style="stop-color:#EF4874"/>
		<stop  offset="0.6685" style="stop-color:#E65125"/>
		<stop  offset="0.8876" style="stop-color:#FCB017"/>
		<stop  offset="1" style="stop-color:#DAE120"/>
	</linearGradient>
	<path class="st0" d="M389.2,88.1c-0.5,0.7-1.1,1.4-1.6,2c-3.1,3.5-6.9,5.8-11.6,6.1c-5.7,0.4-9.9-2.3-12.9-7.1
		c-0.3-0.6-0.7-1.1-1-1.8c-2.5,5.3-6,9.3-12.3,8.8c-6.2-0.5-9.6-4.6-10.8-10.6c-1,1.5-1.9,2.9-3,4.2c-2.8,3.4-6.3,5.6-10.6,6.3
		c-5.3,0.9-9.6-0.9-12.9-5.1c-1.9-2.3-3-4.9-3.9-7.7c-0.1-0.4-0.2-0.7-0.4-1.2c-0.5,1.2-1,2.3-1.5,3.4c-1.4,2.9-3.3,5.5-5.6,7.8
		c-5.3,5.2-11.9,3.1-15.3-0.6c-2.8-3-4-6.7-4.9-10.6c-0.4-1.6-0.5-3.3-0.8-4.9c0-0.3-0.1-0.5-0.2-0.8c-1,2-2,4-3,5.8
		c-2.3,4-5.1,7.5-8.8,10.2c-5.9,4.1-12.4,5-19.3,3.7c-2.4-0.5-4.7-1.4-7-2.2c-0.7-0.3-1.5-0.8-1.9-1.4c-0.4-0.6-0.8-1.6-0.6-2.3
		c0.4-2.2,1.6-4.2,3.3-5.7c1.3-1.1,2.3-1.2,3.7-0.2c1.2,0.8,2.4,1.7,3.6,2.5c1.6,1,3.4,1.8,5.4,1.3c2.5-0.5,4.3-3,4.5-6.1
		c0.2-2.3-0.3-4.5-1.5-6.5c-2.5-4.5-6.8-7.4-10.5-11.1c-1.3,2.2-2.5,4.3-3.8,6.3c-3.3,5.3-6.4,10.6-9.8,15.9c-2,3-4.4,5.7-7.4,7.7
		c-2.1,1.4-4.3,2.4-6.8,2c-2.3-0.3-3.8-1.5-4.9-3.5c-1.2-2.3-1.7-4.8-2-7.3c-0.8-6.6-0.4-13.1-0.1-19.7c0.2-4.7,0.4-9.4,0.6-14.2
		c0-0.4,0-0.7-0.1-1.5c-0.7,0.6-1.1,0.8-1.5,1.2c-3.3,3.6-5.7,7.7-7.7,12.1c-4.3,9.3-7.2,19.1-8.8,29.3c0,0.2,0,0.5-0.1,0.7
		c-0.2,2.3-0.8,2.9-3.1,3c-1.3,0-2.7-0.1-4-0.2c-1.6-0.2-2.6-1.2-3.3-2.6c-1-2.2-1.1-4.6-1.1-6.9c0-11.8,0.1-23.5,0.2-35.3
		c0-2.6,0-5.3,0-7.9c0-1.8,0.7-2.6,2.5-2.3c2.3,0.4,4.5,1.1,6.8,1.8c1,0.3,1.4,1.2,1.4,2.3c-0.1,7.6-0.1,15.2-0.2,22.9
		c0,0.4,0,0.8,0.2,1.4c0.1-0.4,0.3-0.7,0.4-1.1c1.8-4.6,3.5-9.4,5.4-13.9c1.8-4.1,4-7.9,7.5-10.8c2.3-1.9,4.9-3.2,7.9-2.5
		c2.8,0.6,5.2,2.1,7.4,4c1.3,1.2,1.8,2.7,1.7,4.5c-0.2,5.5-0.5,11-0.6,16.5c0,5.4,0.2,10.8,0.3,16.2c0,0.3,0.1,0.7,0.2,1
		c0.6,2.4,1.9,2.8,3.6,1c1.7-1.8,3.2-3.7,4.4-5.8c3.5-5.9,6.7-11.8,10.1-17.7c0.4-0.6,0.2-1-0.2-1.5c-3.3-3.9-3.3-8.2-1-12.5
		c2.4-4.4,6.1-6.9,11.3-6.8c0.6,0,1.3,0.1,1.9,0.3c2.6,0.7,3.8,2.8,3.2,5.7c-0.7,3.5-2.5,6.5-4.6,9.4c-0.4,0.6-0.9,1.1-1.4,1.7
		c0.4,0.3,0.7,0.6,1.1,0.8c3.5,2.7,7.1,5.3,10.5,8c3,2.4,5.5,5.4,6.3,9.3c0.4,1.7,0.2,3.5,0.3,5.3c0,0.3-0.1,0.7,0.2,1.2
		c1.1-1.3,2.3-2.5,3.4-3.9c2.7-3.5,4.5-7.5,5.3-11.8c0.1-0.3,0.1-0.5,0.1-0.8c0-8.7,0.1-17.3,0.1-26c0-0.2,0-0.4-0.1-0.7
		c-1.5-0.1-2.9-0.1-4.4-0.2c-2.5-0.1-5-0.2-7.4-0.2c-1.1,0-1.7-0.5-1.8-1.6c-0.2-2.4,0.3-4.6,1.7-6.5c0.3-0.4,1.1-0.7,1.6-0.7
		c3.2,0,6.5,0.2,9.7,0.3c0.4,0,0.8,0,1.3,0c0-0.4,0.1-0.9,0.1-1.3c0.2-4.5,0.4-9,0.6-13.4c0.1-2.1,1.2-3.1,3.3-2.7
		c2.6,0.5,5.1,1.3,7.7,2.1c1.2,0.4,1.7,1.2,1.6,2.6c-0.3,4.3-0.4,8.6-0.6,13.1c2,0.1,4,0.3,5.9,0.4c2.9,0.2,5.9,0.3,8.8,0.5
		c1.9,0.1,2.4,0.7,2.2,2.6c0,0.5-0.1,1.1-0.3,1.6c-0.6,2.6-1.2,3.2-3.9,3.2c-3.8,0.1-7.6,0.1-11.4,0.2c-0.5,0-1,0-1.6,0
		c-0.2,3.3-0.4,6.5-0.4,9.7c-0.2,8.7-0.5,17.3-0.5,26c0,2.9,0.7,5.8,1.1,8.7c0.1,0.6,0.3,1.1,0.6,1.6c1.5,3.4,3.6,3.9,6.4,1.5
		c2.7-2.3,4.3-5.3,5.6-8.6c0.9-2.3,1.4-4.8,1.5-7.3c0.2-6,1-11.9,3.2-17.5c1.3-3.3,3.2-6.4,5.8-8.9c5.9-5.9,14.6-5.4,19.9,1.1
		c0.2,0.3,0.4,0.5,0.9,1.1c0-0.8,0-1.3,0-1.7c0.1-1.5,1.1-2.6,2.6-2.6c2.6-0.1,5.1,0.5,7.4,1.7c1.1,0.6,1.6,1.5,1.6,2.8
		c-0.2,8.1-0.5,16.2-0.6,24.4c-0.1,4.6,0,9.3,1.1,13.8c0.2,0.9,0.5,1.8,1,2.6c1.4,2.7,4.5,3.2,6.5,0.8c2.4-2.9,3.7-6.1,3.2-10.1
		c-1.1-9.7-0.2-19.2,4.4-28.1c1.4-2.6,3.1-5,5.4-6.9c5.8-4.6,13.7-3.7,18.5,2.1c0.3,0.3,0.5,0.6,0.9,1.1c0-0.5,0.1-0.9,0.1-1.2
		c0-2,1-3.1,2.9-3.1c2.6,0,5.1,0.6,7.4,1.8c1,0.5,1.2,1.4,1.2,2.4c-0.1,11.5-0.3,23-0.4,34.5c0,0.4,0,0.8,0,1.5
		c0.3-0.2,0.4-0.3,0.5-0.4c5.6-8.1,10-16.8,12.4-26.4c0.2-0.7,0.1-1-0.5-1.5c-3.1-2.6-3.7-6.4-1.8-10.4c1.7-3.5,4.8-5.1,8.7-4.5
		c2.2,0.4,3.8,2.1,3.9,4.4c0,1.3-0.1,2.7-0.2,4.2c2-0.3,4-0.7,6.1-1c2.1-0.4,4.2-0.9,6.4-1.1c2.4-0.2,4.6,0.3,6,2.7
		c0.9,1.6,0.8,3.2,0.5,4.9c-0.9,4.7-2,9.3-2.7,14c-0.8,5.5-0.9,11.1,0.6,16.6c0.4,1.5,1.1,3,2,4.3c1.7,2.4,4.5,2.6,6.5,0.4
		c2.4-2.7,3.2-5.7,2.7-9.5c-1.3-9-0.7-18,3-26.5c1.3-2.9,3-5.6,5.2-7.9c5.9-6,14.9-5.5,20.1,1.2c0.2,0.2,0.4,0.5,0.7,0.9
		c0-0.8,0-1.2,0-1.7c0-1.7,0.9-2.7,2.6-2.7c2.5-0.1,4.8,0.5,7.1,1.5c1.3,0.6,1.9,1.6,1.8,3.2c-0.3,8.9-0.5,17.9-0.6,26.8
		c0,3.7,0.5,7.3,0.9,11c0.1,1,0.5,2,1,3c1.2,2.4,3.9,3,5.9,1.1c1-1,1.9-2.2,2.6-3.5c2-3.7,3.2-7.6,3.1-12
		c-0.1-9.4,0.1-18.9,0.2-28.3c0-2.8,0.1-4.1,4.2-3.3c1.5,0.3,2.9,0.6,4.4,1c1.8,0.5,2.4,1.2,2.4,3.1c0,5.7,0,11.3,0,17
		c0,0.3,0,0.7,0.2,1.1c0.2-0.5,0.3-1,0.5-1.5c1.9-5.3,3.7-10.6,5.6-15.8c0.4-1.1,1.1-2.1,1.6-3.2c0.8-1.5,2.3-2.3,3.9-2
		c1.9,0.4,3.9,0.9,5.7,1.7c2.4,1.1,3.5,3.1,3.6,5.8c0.2,5.8,0.4,11.7,0.7,17.5c0.1,1.9,0.3,3.9,0.5,5.8c0.1,0,0.2,0,0.3,0
		c0.1-0.7,0.2-1.3,0.4-2c1.5-8.9,4.3-17.4,7.8-25.7c1.1-2.7,3-3.8,5.7-3c2.2,0.6,4.4,1.6,6.5,2.6c2.1,1.1,2.9,2.9,2.8,5.4
		c-0.2,8.7-0.4,17.3-0.3,26c0,3,0.8,6,1.4,9c0.2,1.2,0.9,2.3,1.6,3.3c1.5,2.1,4,2.1,5.4-0.1c0.9-1.3,1.4-2.9,2-4.4
		c0.5-1.4,0.8-2.9,1.1-4.4c0.1-0.6,0.3-1.1,0.6-1.6c0.3-0.8,1-1.4,1.8-1.1c0.6,0.2,1.5,0.9,1.5,1.5c0.1,1.7,0.2,3.5-0.2,5.1
		c-0.6,2.7-1.3,5.4-2.5,7.8c-3.9,7.9-11.9,7.2-16.6,3.1c-3.1-2.7-4.6-6.3-5.4-10.3c-1.1-5.2-1.3-10.4-1.4-15.7c0-4,0.1-8,0.2-12
		c0-0.4,0-0.7-0.3-1.2c-0.2,0.3-0.3,0.5-0.5,0.8c-3.9,8.4-6.3,17.2-7.4,26.3c-0.3,2.7-0.4,5.4-0.6,8.1c-0.1,1.2-0.7,2-2.1,2.4
		c-4.2,1.2-8.3-0.9-9.5-5.1c-0.8-2.7-1.4-5.5-1.6-8.3c-0.7-7.4-1.1-14.9-1.6-22.3c0-0.4-0.1-0.8-0.1-1.2c-0.1-0.1-0.2-0.1-0.3-0.2
		c-0.4,0.4-0.8,0.8-1.1,1.3c-2.6,4.6-4.1,9.5-5.5,14.6c-1.7,6-1.9,12.1-2.1,18.3c-0.1,1.6-0.1,3.2-0.2,4.9c-0.1,1-0.5,1.9-1.6,2.2
		c-3.1,0.7-6.1,0.6-9.1-0.5c-1.3-0.5-2-1.3-2.1-2.8c0-1.5-0.3-3-0.4-4.9c-2.5,5.3-5.7,9.3-11.9,8.5c-6.1-0.8-9.3-4.9-10.7-10.8
		c-0.7,1.2-1.4,2.2-2.1,3.2c-2.8,3.9-6.5,6.6-11.3,7.5c-6,1.1-11.2-1.4-14.4-6.8c-0.2-0.4-0.4-0.7-0.7-1.3c-0.3,0.5-0.5,1-0.8,1.4
		c-2,3.4-4.7,6-8.7,6.8c-3.7,0.7-6.9-0.7-9.7-3c-3.7-3-5.3-7-6.2-11.5c-1.2-6.1-0.8-12.2,0.1-18.2c0.4-2.7,1-5.5,1.6-8.2
		c0.2-0.9-0.1-1.2-1-1.2c-2.4,0.1-4.8,0.1-7.2,0.2c-0.3,0-0.8,0.5-0.9,0.9c-3.4,9.5-7.9,18.4-13.7,26.6c-2,2.8-4.3,5.5-6.3,8.3
		c-0.4,0.5-0.6,1.2-0.6,1.9c0,5.6,0.2,11.1,0.1,16.7c-0.1,5.9-1,11.7-3.5,17.1c-2.8,6.1-7.6,10-14.4,10.6c-5.2,0.5-10-1-13.5-5.1
		c-3.5-4.1-3.5-8.9-1.6-13.8c1.5-3.8,4-6.9,6.9-9.7c4.8-4.7,9.8-9.3,14.7-13.9c0.6-0.5,0.9-1.1,0.8-1.9c-0.1-1.3,0-2.6,0-3.9
		C389.5,88.1,389.4,88.1,389.2,88.1z M318.9,72.3c0.1,1.1,0.1,3,0.3,4.9c0.4,3.1,1,6.2,2.7,8.9c2.2,3.5,5.6,3.9,8.6,1.2
		c2.2-2,3.4-4.5,4.3-7.2c2-6.2,2.3-12.5,2-18.9c-0.2-3.1-0.7-6.1-2.2-8.8c-2.4-4.3-7.4-4.9-10.6-1.1c-1.2,1.5-2.2,3.3-2.9,5.1
		C319.2,61.2,319,66.4,318.9,72.3z M479.9,65.7c0-0.9,0-1.9,0-2.8c-0.2-3.4-0.5-6.9-2.1-10c-2.4-4.9-8.1-5.6-11.3-1.1
		c-1.2,1.7-2.3,3.7-2.8,5.8c-1.9,7.1-2.1,14.3-1.1,21.6c0.4,2.8,1.1,5.6,3,7.9c1.9,2.3,4.4,2.7,6.9,1.1c1.9-1.3,3.2-3.1,4.2-5.2
		C479.2,77.5,479.9,71.6,479.9,65.7z M370.8,71.7c0.1,1.9,0.2,3.8,0.4,5.7c0.4,3.1,0.9,6.1,2.6,8.8c2.2,3.4,5.5,3.9,8.5,1.2
		c1.8-1.5,2.9-3.5,3.7-5.7c2.6-6.8,3.1-13.8,2.7-21c-0.2-2.7-0.5-5.4-1.6-7.9c-2-4.4-6.7-5.3-10.3-2c-1.7,1.6-2.7,3.5-3.5,5.7
		C371.5,61.4,370.9,66.5,370.8,71.7z M390,101.6c-0.1-0.1-0.2-0.2-0.3-0.2c-3.1,3.4-6.2,6.8-9.1,10.3c-2.2,2.5-4,5.3-5.1,8.5
		c-0.5,1.6-1,3.2-1,4.8c-0.1,5,4.3,7.8,8.9,5.6c2.8-1.3,3.9-3.9,4.8-6.6c1.3-4.1,1.7-8.3,1.9-12.6C390.1,108.1,390,104.8,390,101.6z
		"/>
	<linearGradient id="SVGID_2_" gradientUnits="userSpaceOnUse" x1="171.6929" y1="14.4965" x2="144.8199" y2="102.3941">
		<stop  offset="0" style="stop-color:#4F68B1"/>
		<stop  offset="2.156530e-02" style="stop-color:#5964AD"/>
		<stop  offset="8.553831e-02" style="stop-color:#6B58A5"/>
		<stop  offset="0.1552" style="stop-color:#764FA0"/>
		<stop  offset="0.234" style="stop-color:#7C489C"/>
		<stop  offset="0.3414" style="stop-color:#7E469B"/>
	</linearGradient>
	<path class="st1" d="M173.5,51.4c-0.1,10.9-0.2,21.7-0.4,32.6c-0.1,5.8-1.4,11.4-4.7,16.4c-1.4,2.1-3.3,3.8-5.4,5.2
		c-0.6,0.4-1.2,0.8-1.9,0.9c-0.8,0.2-1.9,0.4-2.5,0.1c-0.9-0.5-0.5-1.7-0.2-2.4c2.4-6.8,2.7-13.9,2.7-21.1
		c0.1-19.4,0.2-38.8,0.3-58.2c0-1,0-2,0-3c0-0.5-0.3-1-0.4-1.5c-0.4,0.3-1,0.4-1.3,0.8c-1.2,1.4-2.6,2.7-3.6,4.2
		c-5.3,8.1-7.6,16.9-6.1,26.6c0.4,2.6,1.5,4.9,2.9,7c0.7,1,1.6,2.2,0.6,3.4c-0.9,1.1-2.3,0.4-3.3,0c-7-2.5-12.1-10.8-10.9-18.4
		c2-13,8.9-23,20.2-29.8c4.4-2.6,8.5-1.5,12.4,1c1.1,0.7,1.6,1.7,1.6,3.1c0,11,0,22.1,0,33.1C173.4,51.4,173.4,51.4,173.5,51.4z"/>
</g>
<radialGradient id="SVGID_3_" cx="-50.5135" cy="-119.3187" r="56.5239" gradientTransform="matrix(0 -1.982 -1.8439 0 -182.977 28.6277)" gradientUnits="userSpaceOnUse">
	<stop  offset="0" style="stop-color:#FEDD57"/>
	<stop  offset="0.1" style="stop-color:#FEDD57"/>
	<stop  offset="0.5" style="stop-color:#F15843"/>
	<stop  offset="1" style="stop-color:#BB469A"/>
</radialGradient>
<path class="st2" d="M63.6,7C40,7,33,7,31.7,7.1c-4.8,0.4-7.9,1.2-11.1,2.8c-2.5,1.3-4.5,2.7-6.5,4.8c-3.6,3.7-5.8,8.3-6.5,13.8
	C7.1,31.1,7,31.6,7,45.1c0,4.5,0,10.4,0,18.4C7,87.1,7,94,7.1,95.3c0.4,4.7,1.1,7.7,2.7,10.9c3,6.2,8.7,10.9,15.4,12.6
	c2.3,0.6,4.9,0.9,8.2,1.1c1.4,0.1,15.7,0.1,29.9,0.1s28.6,0,29.9-0.1c3.8-0.2,6-0.5,8.5-1.1c6.8-1.7,12.4-6.3,15.4-12.6
	c1.5-3.2,2.3-6.2,2.7-10.7c0.1-1,0.1-16.5,0.1-32c0-15.5,0-31-0.1-32c-0.4-4.5-1.1-7.6-2.7-10.8c-1.3-2.6-2.7-4.6-4.8-6.6
	c-3.7-3.6-8.3-5.7-13.8-6.5C96,7.1,95.5,7,82,7H63.6z"/>
<radialGradient id="SVGID_4_" cx="432.8726" cy="25.191" r="56.5239" gradientTransform="matrix(0.1739 0.8687 3.5818 -0.7172 -177.4619 -342.8356)" gradientUnits="userSpaceOnUse">
	<stop  offset="0" style="stop-color:#4270B7"/>
	<stop  offset="0.128" style="stop-color:#4270B7"/>
	<stop  offset="1" style="stop-color:#5E53A3;stop-opacity:0"/>
</radialGradient>
<path class="st3" d="M63.6,7C40,7,33,7,31.7,7.1c-4.8,0.4-7.9,1.2-11.1,2.8c-2.5,1.3-4.5,2.7-6.5,4.8c-3.6,3.7-5.8,8.3-6.5,13.8
	C7.1,31.1,7,31.6,7,45.1c0,4.5,0,10.4,0,18.4C7,87.1,7,94,7.1,95.3c0.4,4.7,1.1,7.7,2.7,10.9c3,6.2,8.7,10.9,15.4,12.6
	c2.3,0.6,4.9,0.9,8.2,1.1c1.4,0.1,15.7,0.1,29.9,0.1s28.6,0,29.9-0.1c3.8-0.2,6-0.5,8.5-1.1c6.8-1.7,12.4-6.3,15.4-12.6
	c1.5-3.2,2.3-6.2,2.7-10.7c0.1-1,0.1-16.5,0.1-32c0-15.5,0-31-0.1-32c-0.4-4.5-1.1-7.6-2.7-10.8c-1.3-2.6-2.7-4.6-4.8-6.6
	c-3.7-3.6-8.3-5.7-13.8-6.5C96,7.1,95.5,7,82,7H63.6z"/>
<path class="st4" d="M63.5,21.8c-11.3,0-12.8,0-17.2,0.3c-4.4,0.2-7.5,0.9-10.1,1.9c-2.7,1.1-5.1,2.5-7.4,4.8
	c-2.3,2.3-3.7,4.6-4.8,7.4c-1,2.7-1.7,5.7-1.9,10.1c-0.2,4.5-0.3,5.9-0.3,17.2s0.1,12.8,0.3,17.2c0.2,4.4,0.9,7.5,1.9,10.1
	c1.1,2.7,2.5,5.1,4.8,7.4c2.3,2.3,4.6,3.8,7.4,4.8c2.7,1,5.7,1.7,10.1,1.9c4.5,0.2,5.9,0.3,17.2,0.3c11.3,0,12.8,0,17.2-0.3
	c4.4-0.2,7.5-0.9,10.1-1.9c2.7-1.1,5.1-2.5,7.4-4.8c2.3-2.3,3.7-4.6,4.8-7.4c1-2.7,1.7-5.7,1.9-10.1c0.2-4.5,0.3-5.9,0.3-17.2
	s-0.1-12.8-0.3-17.2c-0.2-4.4-0.9-7.5-1.9-10.1c-1.1-2.7-2.5-5.1-4.8-7.4c-2.3-2.3-4.6-3.7-7.4-4.8c-2.7-1-5.7-1.7-10.1-1.9
	C76.3,21.8,74.9,21.8,63.5,21.8L63.5,21.8z M59.8,29.3c1.1,0,2.4,0,3.7,0c11.1,0,12.5,0,16.9,0.2c4.1,0.2,6.3,0.9,7.7,1.4
	c1.9,0.8,3.3,1.7,4.8,3.1c1.5,1.5,2.4,2.9,3.1,4.8c0.6,1.5,1.3,3.7,1.4,7.7c0.2,4.4,0.2,5.7,0.2,16.9s0,12.5-0.2,16.9
	c-0.2,4.1-0.9,6.3-1.4,7.7c-0.8,1.9-1.7,3.3-3.1,4.8c-1.5,1.5-2.8,2.4-4.8,3.1c-1.5,0.6-3.7,1.3-7.7,1.4c-4.4,0.2-5.7,0.2-16.9,0.2
	c-11.1,0-12.5,0-16.9-0.2c-4.1-0.2-6.3-0.9-7.8-1.4c-1.9-0.8-3.3-1.7-4.8-3.1c-1.5-1.5-2.4-2.8-3.1-4.8c-0.6-1.5-1.3-3.7-1.4-7.7
	c-0.2-4.4-0.2-5.7-0.2-16.9s0-12.5,0.2-16.9c0.2-4.1,0.9-6.3,1.4-7.7c0.8-1.9,1.7-3.3,3.1-4.8c1.5-1.5,2.9-2.4,4.8-3.1
	c1.5-0.6,3.7-1.3,7.8-1.4C50.5,29.4,52,29.3,59.8,29.3L59.8,29.3z M85.8,36.2c-2.8,0-5,2.2-5,5c0,2.8,2.2,5,5,5s5-2.2,5-5
	C90.8,38.5,88.6,36.2,85.8,36.2L85.8,36.2z M63.5,42.1c-11.8,0-21.4,9.6-21.4,21.4S51.7,85,63.5,85C75.4,85,85,75.4,85,63.5
	S75.4,42.1,63.5,42.1L63.5,42.1z M63.5,49.6c7.7,0,13.9,6.2,13.9,13.9c0,7.7-6.2,13.9-13.9,13.9c-7.7,0-13.9-6.2-13.9-13.9
	C49.6,55.8,55.8,49.6,63.5,49.6z"/>
</svg>
