<?xml version="1.0" encoding="utf-8"?>
<!-- Generator: Adobe Illustrator 21.0.0, SVG Export Plug-In . SVG Version: 6.00 Build 0)  -->
<svg version="1.1" id="Layer_1" xmlns="http://www.w3.org/2000/svg" xmlns:xlink="http://www.w3.org/1999/xlink" x="0px" y="0px"
	 viewBox="0 0 44.3 30.8" style="enable-background:new 0 0 44.3 30.8;" xml:space="preserve">
<style type="text/css">
	.st0{fill:#C69C6D;}
</style>
<g>
	<path class="st0" d="M6.8,25.7c-1.3-1.6-2.3-3.5-3.2-5.6s-1.3-4.3-1.3-6.6c0-2,0.3-3.9,1-5.8c0.8-2.1,1.9-4.3,3.5-6.4h1.6
		c-1,1.8-1.7,3-2,3.8C5.9,6.2,5.5,7.5,5.2,8.7c-0.4,1.6-0.5,3.2-0.5,4.8c0,4.1,1.3,8.1,3.8,12.2H6.8z"/>
	<path class="st0" d="M10.1,12.5c0.7,0,1.2-0.2,1.6-0.5s0.7-0.8,0.8-1.4s0.2-1.6,0.2-3s0-2.3,0.1-2.8c0.1-0.7,0.2-1.3,0.4-1.7
		c0.2-0.4,0.5-0.8,0.8-1s0.7-0.5,1.2-0.6c0.3-0.1,0.8-0.1,1.6-0.1h0.7v2h-0.4c-0.9,0-1.5,0.2-1.8,0.5c-0.3,0.3-0.4,1-0.4,2.1
		c0,2.2,0,3.6-0.1,4.2c-0.2,0.9-0.4,1.6-0.8,2.1s-0.9,0.9-1.7,1.3c0.9,0.4,1.6,1,2,1.8s0.6,2.1,0.6,3.9c0,1.7,0,2.6,0.1,2.9
		c0.1,0.6,0.2,1,0.5,1.2c0.3,0.2,0.8,0.3,1.6,0.3h0.4v2h-0.7c-0.8,0-1.4-0.1-1.8-0.2c-0.5-0.2-1-0.5-1.3-0.9c-0.4-0.4-0.6-1-0.7-1.7
		c-0.1-0.7-0.2-1.8-0.2-3.3s-0.1-2.6-0.2-3.2s-0.4-1-0.8-1.4c-0.4-0.3-0.9-0.5-1.6-0.5V12.5z"/>
	<path class="st0" d="M33.3,12.5v2.1c-0.7,0-1.2,0.2-1.6,0.5c-0.4,0.3-0.7,0.8-0.8,1.4c-0.1,0.6-0.2,1.6-0.2,3c0,1.4,0,2.3-0.1,2.8
		c-0.1,0.7-0.2,1.3-0.4,1.7c-0.2,0.4-0.5,0.8-0.8,1c-0.3,0.3-0.7,0.5-1.2,0.6c-0.3,0.1-0.8,0.1-1.6,0.1h-0.7v-2h0.4
		c0.9,0,1.5-0.2,1.8-0.5c0.3-0.3,0.4-1,0.4-2.1c0-2.1,0-3.5,0.1-4c0.1-0.9,0.4-1.7,0.8-2.3c0.4-0.6,1-1,1.7-1.3
		c-1-0.5-1.7-1.1-2.1-1.8s-0.6-2.1-0.6-3.9c0-1.7,0-2.6-0.1-3c-0.1-0.6-0.2-1-0.5-1.2c-0.3-0.2-0.8-0.3-1.6-0.3h-0.4v-2h0.7
		c0.8,0,1.4,0.1,1.8,0.2c0.5,0.2,1,0.5,1.3,0.9s0.6,1,0.7,1.7c0.1,0.7,0.2,1.8,0.2,3.3s0.1,2.6,0.2,3.2s0.4,1,0.8,1.4
		C32.1,12.3,32.6,12.4,33.3,12.5z"/>
	<path class="st0" d="M37.2,25.7h-1.6c2.5-4.1,3.8-8.1,3.8-12.2c0-1.6-0.2-3.2-0.5-4.7c-0.3-1.3-0.7-2.5-1.2-3.7c-0.3-0.8-1-2-2-3.8
		h1.6c1.6,2.1,2.8,4.3,3.5,6.4c0.7,1.8,1,3.8,1,5.8c0,2.3-0.4,4.5-1.3,6.6C39.5,22.2,38.5,24.1,37.2,25.7z"/>
</g>
</svg>
