<?xml version="1.0" encoding="utf-8"?>
<!-- Generator: Adobe Illustrator 21.0.0, SVG Export Plug-In . SVG Version: 6.00 Build 0)  -->
<svg version="1.1" id="Layer_1" xmlns="http://www.w3.org/2000/svg" xmlns:xlink="http://www.w3.org/1999/xlink" x="0px" y="0px"
	 viewBox="0 0 291.3 621.8" style="enable-background:new 0 0 291.3 621.8;" xml:space="preserve">
<g>
	<path d="M33.3,577.5v-44.8h14.3v44.8H33.3z"/>
	<path d="M93.9,577.5H78.2l-5.9-13.3h-3.1v13.3H54.8v-44.8h22.6c10.3,0,15.4,5.2,15.4,15.7c0,7.2-2.2,11.9-6.7,14.2L93.9,577.5z
		 M69.2,544.1v9h3.3c1.7,0,3-0.2,3.8-0.5s1.2-1.2,1.2-2.5v-2.9c0-1.3-0.4-2.1-1.2-2.5s-2-0.5-3.8-0.5H69.2z"/>
	<path d="M125.5,560.9h-12.2v16.6H99v-44.8h29.4l-1.8,11.5h-13.3v6h12.2V560.9z"/>
	<path d="M141.2,577.5h-15.1l11.6-44.8h22.2l11.6,44.8h-15.1l-1.6-7.1h-11.8L141.2,577.5z M148.4,546.4l-2.9,12.6h6.6l-2.9-12.6
		H148.4z"/>
	<path d="M200.6,577.5l-11-15.9c-0.4-0.5-0.6-1.7-0.7-3.4h-0.3v19.4h-14.3v-44.8h13.5l11,15.9c0.4,0.5,0.6,1.7,0.7,3.4h0.3v-19.4
		H214v44.8H200.6z"/>
</g>
<g>
	<polygon points="242.3,257.8 5.7,257.8 32.2,433.5 110.5,433.5 95.4,357.2 117.5,307.6 106.4,279.4 115.6,269.5 125.1,269.5 
		124.4,269.5 125.7,269.5 125.1,269.5 134.5,269.5 143.7,279.4 132.6,307.6 154.7,357.2 140,433.5 215.2,433.5 	"/>
	<g>
		<path d="M179.6,440.8l-9.1,32.2l-9.1-32.2h-22.8l-13.2,68.5l-13.5-68.5H33.5v85.5h21l8.9-21.4h32.2l5.4,21.4h46.2l9.4-33l9.4,33
			h8.3l9.4-33l9.4,33h21.7v-85.5H179.6z M71.5,485.4l11.9-28.7l7.3,28.7H71.5z"/>
	</g>
</g>
<g>
	<path d="M38.4,109.9c-2.5,0.2-3,1.4-2.9,3.4c0.2,2.9,0.6,5.8,1,8.7c0.1,0.6,0.8,1.3,1.3,1.5c3.6,1.4,5,4.2,5.4,7.9
		c0,0.3,0.1,0.6,0.1,1l63.7-19.9c-13.6-2.9-27.4-4.4-41.4-4.8C56.6,108.4,47.5,109.3,38.4,109.9z"/>
	<path d="M43.3,131.3c-0.4-3.6-1.8-6.4-5.4-7.9c-0.6-0.2-1.2-0.9-1.3-1.5c-0.4-2.9-0.8-5.8-1-8.7c-0.1-1.9,0.4-3.2,2.9-3.4
		c9.1-0.6,18.1-1.5,27.2-2.3c14,0.3,27.8,1.9,41.4,4.8l106-33.2c-17.8-30.2-50.6-50.6-88.2-50.6c-56.5,0-102.3,45.8-102.3,102.3
		c0,2.6,0.1,5.2,0.3,7.8l20.5-6.4C43.3,132,43.3,131.7,43.3,131.3z"/>
	<path d="M144.2,112.1c17.6-3.6,35.4-4.7,53.5-3.5c4.8,0.3,9.6,0.9,14.4,1.5c0.7,0.1,1.9,1.1,1.9,1.6c-0.1,3.6-0.5,7.3-0.9,10.9
		c0,0.3-0.7,0.7-1.1,0.9c-3.6,1.4-4.9,4.2-5.4,7.8c-0.7,5.3-1.2,10.7-2.7,15.8c-3.4,11.8-11.9,17.9-23.8,19.5
		c-6.4,0.9-12.7,0.7-18.9-0.7c-10.3-2.4-17.9-8.4-23-17.5c-2.4-4.3-4.3-9-6.5-13.4c-1.1-2.1-2.2-4.2-3.6-6.1c-1.9-2.5-4.3-2.5-6.1,0
		c-1.8,2.5-3.1,5.4-4.6,8.2c-3,5.4-5.4,11.2-8.9,16.2c-5.7,8-14,12.1-23.7,13.4c-6.3,0.8-12.5,0.8-18.7-0.7
		c-12.1-2.9-18.7-11-21.2-22.7l-20.5,6.4c8.8,47.6,50.4,83.6,100.5,83.6c56.5,0,102.3-45.8,102.3-102.3c0-15-3.2-29.2-9-42
		L144.2,112.1z"/>
</g>
<g>
	<path d="M219.9,73.5c-4.4-13.4-8.8-26.3-13-39.3c-2.6-8.2-7.2-15-14.4-19.4c-6.5-4-13.5-7.8-20.8-10c-22.8-7.1-45.9-5.4-68.9-0.9
		c-2.9,0.6-5.8,2-7.9-1.8c-0.6-1-2.9-1.3-4.4-1.4C82.9,0,76.1,2.2,69.9,6.4c-3.2,2.1-5.3,4.7-3.8,8.8c-5.2,2.6-10.4,5-15.3,7.7
		C34.4,32,19.5,42.9,9,58.7c-8.6,12.9-11.9,26.4-6,41.7c5,13.2,9.1,26.8,13.5,40.3c0.3,1,0.6,1.9,1.1,2.7l273.9-85.7
		C267.2,60.5,243.9,68.1,219.9,73.5z"/>
</g>
<g>
	<polygon points="98.6,600.4 97.3,605.9 100.2,605.9 98.9,600.4 	"/>
	<path d="M33.3,586.3v35.5h181.3v-35.5H33.3z M52.7,599.4h-5.9v2.7h5.4v4.7h-5.4v7.3h-6.3v-19.8h13L52.7,599.4z M102.1,614.1
		l-0.7-3.1h-5.2l-0.7,3.1h-6.7l5.1-19.8h9.8l5.1,19.8H102.1z M152.5,614.1h-6.3v-19.8h6.3V614.1z M208.2,614.1h-17v-4l8.1-10.6
		l-0.1-0.2h-6.6l-0.6-5.1h16.1v4l-8,10.6l0.1,0.2h8V614.1z"/>
</g>
</svg>
