<?xml version="1.0" encoding="utf-8"?>
<!-- Generator: Adobe Illustrator 21.0.0, SVG Export Plug-In . SVG Version: 6.00 Build 0)  -->
<svg version="1.1" id="Layer_1" xmlns="http://www.w3.org/2000/svg" xmlns:xlink="http://www.w3.org/1999/xlink" x="0px" y="0px"
	 viewBox="0 0 291.3 233.2" style="enable-background:new 0 0 291.3 233.2;" xml:space="preserve">
<g>
	<path d="M38.4,109.9c-2.5,0.2-3,1.4-2.9,3.4c0.2,2.9,0.6,5.8,1,8.7c0.1,0.6,0.8,1.3,1.3,1.5c3.6,1.4,5,4.2,5.4,7.9
		c0,0.3,0.1,0.6,0.1,1l63.7-19.9c-13.6-2.9-27.4-4.4-41.4-4.8C56.6,108.4,47.5,109.3,38.4,109.9z"/>
	<path d="M43.3,131.3c-0.4-3.6-1.8-6.4-5.4-7.9c-0.6-0.2-1.2-0.9-1.3-1.5c-0.4-2.9-0.8-5.8-1-8.7c-0.1-1.9,0.4-3.2,2.9-3.4
		c9.1-0.6,18.1-1.5,27.2-2.3c14,0.3,27.8,1.9,41.4,4.8l106-33.2c-17.8-30.2-50.6-50.6-88.2-50.6c-56.5,0-102.3,45.8-102.3,102.3
		c0,2.6,0.1,5.2,0.3,7.8l20.5-6.4C43.3,132,43.3,131.7,43.3,131.3z"/>
	<path d="M144.2,112.1c17.6-3.6,35.4-4.7,53.5-3.5c4.8,0.3,9.6,0.9,14.4,1.5c0.7,0.1,1.9,1.1,1.9,1.6c-0.1,3.6-0.5,7.3-0.9,10.9
		c0,0.3-0.7,0.7-1.1,0.9c-3.6,1.4-4.9,4.2-5.4,7.8c-0.7,5.3-1.2,10.7-2.7,15.8c-3.4,11.8-11.9,17.9-23.8,19.5
		c-6.4,0.9-12.7,0.7-18.9-0.7c-10.3-2.4-17.9-8.4-23-17.5c-2.4-4.3-4.3-9-6.5-13.4c-1.1-2.1-2.2-4.2-3.6-6.1c-1.9-2.5-4.3-2.5-6.1,0
		c-1.8,2.5-3.1,5.4-4.6,8.2c-3,5.4-5.4,11.2-8.9,16.2c-5.7,8-14,12.1-23.7,13.4c-6.3,0.8-12.5,0.8-18.7-0.7
		c-12.1-2.9-18.7-11-21.2-22.7l-20.5,6.4c8.8,47.6,50.4,83.6,100.5,83.6c56.5,0,102.3-45.8,102.3-102.3c0-15-3.2-29.2-9-42
		L144.2,112.1z"/>
</g>
<g>
	<path d="M219.9,73.5c-4.4-13.4-8.8-26.3-13-39.3c-2.6-8.2-7.2-15-14.4-19.4c-6.5-4-13.5-7.8-20.8-10c-22.8-7.1-45.9-5.4-68.9-0.9
		c-2.9,0.6-5.8,2-7.9-1.8c-0.6-1-2.9-1.3-4.4-1.4C82.9,0,76.1,2.2,69.9,6.4c-3.2,2.1-5.3,4.7-3.8,8.8c-5.2,2.6-10.4,5-15.3,7.7
		C34.4,32,19.5,42.9,9,58.7c-8.6,12.9-11.9,26.4-6,41.7c5,13.2,9.1,26.8,13.5,40.3c0.3,1,0.6,1.9,1.1,2.7l273.9-85.7
		C267.2,60.5,243.9,68.1,219.9,73.5z"/>
</g>
</svg>
