<?xml version="1.0" encoding="utf-8"?>
<!-- Generator: Adobe Illustrator 21.0.0, SVG Export Plug-In . SVG Version: 6.00 Build 0)  -->
<svg version="1.1" id="Layer_1" xmlns="http://www.w3.org/2000/svg" xmlns:xlink="http://www.w3.org/1999/xlink" x="0px" y="0px"
	 viewBox="0 0 44.3 30.8" style="enable-background:new 0 0 44.3 30.8;" xml:space="preserve">
<style type="text/css">
	.st0{fill:#C69C6D;}
</style>
<g>
	<path class="st0" d="M1.4,16.2V14l12.3-5.2v2.3l-9.8,4l9.8,4v2.3L1.4,16.2z"/>
	<path class="st0" d="M20.9,19.9c0-0.3,0-0.5,0-0.7c0-0.9,0.1-1.6,0.4-2.2c0.2-0.5,0.5-0.9,0.9-1.4c0.3-0.3,0.8-0.9,1.6-1.5
		c0.8-0.7,1.3-1.2,1.5-1.6c0.2-0.4,0.3-0.8,0.3-1.3c0-0.9-0.3-1.6-1-2.3c-0.7-0.6-1.5-1-2.5-1c-0.9,0-1.7,0.3-2.3,0.9
		s-1,1.5-1.2,2.7l-2.3-0.3c0.2-1.7,0.8-2.9,1.8-3.8c1-0.9,2.3-1.3,4-1.3c1.8,0,3.1,0.5,4.2,1.4s1.6,2.1,1.6,3.5
		c0,0.8-0.2,1.5-0.5,2.2c-0.4,0.7-1.1,1.5-2.1,2.4c-0.7,0.6-1.2,1.1-1.4,1.4s-0.4,0.6-0.5,1s-0.2,1-0.2,1.9H20.9z M20.8,24.3v-2.5
		h2.5v2.5H20.8z"/>
	<path class="st0" d="M42.8,16.2l-12.3,5.3v-2.3l9.8-4l-9.8-4V8.8L42.8,14V16.2z"/>
</g>
</svg>
