<?xml version="1.0" encoding="utf-8"?>
<!-- Generator: Adobe Illustrator 21.0.0, SVG Export Plug-In . SVG Version: 6.00 Build 0)  -->
<svg version="1.1" id="Layer_1" xmlns="http://www.w3.org/2000/svg" xmlns:xlink="http://www.w3.org/1999/xlink" x="0px" y="0px"
	 viewBox="0 0 36 36" style="enable-background:new 0 0 36 36;" xml:space="preserve">
<style type="text/css">
	.st0{fill:#FFFFFF;}
</style>
<g>
	<path d="M36.2,29.7c0,0.1,0,0.1,0,0.2c-2.1,2.1-4.2,4.2-6.3,6.3c-0.1,0-0.1,0-0.2,0c-0.1-0.1-0.2-0.3-0.3-0.4
		c-3.6-3.6-7.2-7.2-10.8-10.8c-0.1-0.1-0.3-0.2-0.6-0.5c-0.2,0.3-0.4,0.6-0.6,0.8c-2.9,3-5.9,5.9-8.8,8.8c-0.2,0.2-0.5,0.5-0.8,0.5
		c-2,0-4,0-6.1,0c0-1.8,0-3.5,0-5.2c0-0.8,0.2-1.4,0.8-2c2.9-2.9,5.8-5.8,8.7-8.6c0.2-0.2,0.4-0.5,0.7-0.7c-0.1-0.2-0.2-0.3-0.3-0.3
		C7.8,14.2,4.2,10.6,0.5,6.9C0.4,6.8,0.3,6.7,0.2,6.7c0-0.1,0-0.1,0-0.2c2.1-2.1,4.2-4.2,6.3-6.3c0.1,0,0.1,0,0.2,0
		C6.8,0.3,6.9,0.5,7,0.6c3.6,3.6,7.2,7.2,10.8,10.8c0.1,0.1,0.3,0.2,0.5,0.4c0.2-0.3,0.4-0.6,0.6-0.8c2.6-2.7,5.3-5.3,8-8
		c1.6-1.6,3.7-1.9,5.5-0.8c2.6,1.5,3,4.9,0.8,7.2c-2.6,2.7-5.3,5.4-8,8c-0.2,0.2-0.6,0.3-0.9,0.5c0.4,0.4,0.5,0.5,0.6,0.6
		c3.6,3.6,7.2,7.2,10.8,10.8C35.9,29.5,36,29.6,36.2,29.7z M24.4,20.4c-0.7-0.8-1.4-1.5-2.1-2.3c-0.3,0.4-0.5,0.8-0.9,1
		c-0.3,0.2-0.7,0.1-1.1,0.2c0-0.4-0.1-0.9,0.1-1.2c0.2-0.3,0.7-0.5,0.9-0.6c-0.9-0.9-1.5-1.6-2.3-2.4c-0.3,0.3-0.5,0.7-0.9,0.9
		c-0.3,0.2-0.7,0-1,0c0-0.3-0.1-0.8,0-1c0.3-0.4,0.7-0.6,0.9-0.8c-0.8-0.9-1.4-1.6-2.2-2.4c-0.2,0.3-0.4,0.5-0.5,0.7
		c-0.4,0.4-0.8,1-1.4,0.4c-0.6-0.6-0.1-1,0.3-1.4c0.2-0.2,0.4-0.5,0.6-0.6c-0.7-0.8-1.4-1.5-2.1-2.3c-0.3,0.4-0.5,0.8-0.9,1
		c-0.3,0.2-0.7,0.1-1.1,0.2c0-0.4-0.1-0.9,0.1-1.2c0.2-0.3,0.7-0.5,0.9-0.6C10.9,7,10.2,6.3,9.5,5.5C9.3,5.8,9,6.2,8.7,6.4
		C8.4,6.6,8,6.5,7.6,6.5c0-0.4-0.1-0.8,0.1-1.1c0.2-0.4,0.7-0.6,1-0.8C7.9,3.8,7.2,3.1,6.6,2.5C5.2,3.9,3.8,5.3,2.5,6.6
		c9.1,9.1,18.2,18.2,27.3,27.3c1.4-1.4,2.7-2.7,4.1-4.1c-0.6-0.6-1.2-1.3-2-2.1c-0.3,0.4-0.6,0.8-0.9,1c-0.3,0.2-0.7,0.1-1,0.1
		c0-0.4-0.1-0.8,0-1.1c0.2-0.4,0.6-0.7,0.8-0.9c-0.7-0.8-1.4-1.4-2.1-2.2c-0.2,0.3-0.5,0.7-0.8,1c-0.3,0.2-0.7,0-1,0
		c0-0.3-0.1-0.8,0-1c0.3-0.4,0.7-0.6,1.1-0.9c-0.8-0.8-1.5-1.5-2.2-2.2c-0.2,0.2-0.4,0.4-0.7,0.6c-0.4,0.4-0.8,1-1.4,0.4
		c-0.6-0.6-0.1-1,0.3-1.4C24.1,20.8,24.3,20.6,24.4,20.4z M15.5,21.9c-1.6,1.6-3.2,3.2-4.8,4.8c-0.9,0.9-1.7,1.8-2.6,2.6
		c-0.2,0.2-0.7,0-1.1,0.1c0-0.4,0-0.7,0.1-1.1c0.1-0.2,0.3-0.3,0.5-0.5c2.1-2.1,4.2-4.2,6.2-6.2c0.2-0.2,0.4-0.5,0.6-0.6
		c-0.6-0.6-1.1-1.1-1.6-1.6c-3.1,3.1-6.2,6.2-9.3,9.3c-0.5,0.5-0.5,1,0,1.5c0.9,0.9,1.8,1.8,2.7,2.7c0.5,0.5,1,0.5,1.5,0
		c3.1-3.1,6.2-6.2,9.4-9.3C16.5,23,16,22.5,15.5,21.9z M31.3,9.3c1.2-1,2.2-2.1,1.8-3.8c-0.3-1.2-1.1-2-2.2-2.2
		c-1.7-0.4-2.8,0.6-3.8,1.8C28.5,6.5,29.8,7.8,31.3,9.3z M19.6,12.7c0.4,0.5,0.8,1.1,1.2,1.6c2.3-2.3,4.4-4.4,6.6-6.6
		c-0.5-0.4-1-0.9-1.4-1.4C23.8,8.5,21.6,10.7,19.6,12.7z M28.7,9c-2.3,2.3-4.5,4.4-6.5,6.5c0.4,0.4,0.9,0.9,1.3,1.3
		c2.2-2.2,4.4-4.4,6.5-6.5C29.6,9.9,29.1,9.4,28.7,9z"/>
	<path class="st0" d="M6.5,0.2C4.4,2.3,2.3,4.4,0.2,6.5c0-2.1,0-4.2,0-6.3C2.3,0.2,4.4,0.2,6.5,0.2z"/>
	<path class="st0" d="M29.9,36.2c2.1-2.1,4.2-4.2,6.3-6.3c0,2.1,0,4.2,0,6.3C34.1,36.2,32,36.2,29.9,36.2z"/>
</g>
</svg>
