<?xml version="1.0" encoding="utf-8"?>
<!-- Generator: Adobe Illustrator 21.0.0, SVG Export Plug-In . SVG Version: 6.00 Build 0)  -->
<svg version="1.1" id="Layer_1" xmlns="http://www.w3.org/2000/svg" xmlns:xlink="http://www.w3.org/1999/xlink" x="0px" y="0px"
	 viewBox="0 0 36 36" style="enable-background:new 0 0 36 36;" xml:space="preserve">
<style type="text/css">
	.st0{fill:none;stroke:#231F20;stroke-width:2;stroke-miterlimit:10;}
	.st1{fill:#231F20;}
</style>
<rect x="1" y="1" class="st0" width="34" height="34"/>
<g>
	<path class="st1" d="M7.8,24.8l5-6.7l-4.4-6.2h2l2.3,3.3c0.5,0.7,0.8,1.2,1,1.6c0.3-0.5,0.6-1,1-1.5l2.6-3.4h1.9l-4.5,6.1l4.9,6.8
		h-2.1l-3.2-4.6c-0.2-0.3-0.4-0.6-0.6-0.9c-0.3,0.5-0.5,0.8-0.6,1l-3.2,4.5H7.8z"/>
	<path class="st1" d="M27,24.8v-1.2c-0.6,0.9-1.5,1.4-2.6,1.4c-0.7,0-1.4-0.2-2.1-0.6c-0.6-0.4-1.1-1-1.5-1.7
		c-0.3-0.7-0.5-1.6-0.5-2.5c0-0.9,0.2-1.8,0.5-2.5s0.8-1.3,1.4-1.7s1.3-0.6,2.1-0.6c0.6,0,1.1,0.1,1.5,0.4s0.8,0.5,1.1,0.9v-4.6h1.6
		v12.9H27z M22,20.1c0,1.2,0.3,2.1,0.8,2.7s1.1,0.9,1.8,0.9c0.7,0,1.3-0.3,1.8-0.8c0.5-0.6,0.7-1.4,0.7-2.6c0-1.3-0.2-2.2-0.7-2.8
		s-1.1-0.9-1.8-0.9c-0.7,0-1.3,0.3-1.8,0.9C22.2,18,22,18.9,22,20.1z"/>
</g>
</svg>
